<?xml version="1.0" ?><!DOCTYPE svg  PUBLIC '-//W3C//DTD SVG 1.1//EN'  'http://www.w3.org/Graphics/SVG/1.1/DTD/svg11.dtd'><svg enable-background="new 0 0 512 512" id="Layer_1" version="1.1" viewBox="0 0 512 512" xml:space="preserve" xmlns="http://www.w3.org/2000/svg" xmlns:xlink="http://www.w3.org/1999/xlink" width="80px" height="80px" fill="#636363"><g><path d="M256.8,361.1c-99.5,0-180.5-81-180.5-180.5C76.3,81,157.3,0,256.8,0c99.5,0,180.5,81,180.5,180.5   C437.3,280.1,356.3,361.1,256.8,361.1z M256.8,84.1c-53.2,0-96.5,43.3-96.5,96.5c0,53.2,43.3,96.4,96.5,96.4s96.5-43.3,96.5-96.4   C353.3,127.3,310,84.1,256.8,84.1z" fill="#636363"/><circle cx="256.8" cy="180.5" fill="#636363" r="69.7"/><path d="M97.2,304.5L16.7,441.2l75.4,9.5l44.8,61.3l79.9-135.6C165.6,369.4,126,345,97.2,304.5z" fill="#636363"/><path d="M414.8,304.5l80.6,136.7l-75.4,9.5L375.2,512l-79.9-135.6C346.4,369.4,386,345,414.8,304.5z" fill="#636363"/></g></svg>