<?xml version="1.0" ?><svg data-name="Layer 1" id="Layer_1" viewBox="0 0 512 512" xmlns="http://www.w3.org/2000/svg" width="100px" height="100px" fill="#636363"><path d="M449.27,257.2H377a4.92,4.92,0,0,0-3.49,1.44l-9.28,9.27-59.33-59.32c13.8-.75,28.9-5.91,43.7-19.3a5,5,0,0,0-6.65-7.34c-16.52,15-33.33,18.22-47.66,16.64a4.93,4.93,0,0,0-2.31-.29c-20.19-3-34.93-15.17-36-16.05a5,5,0,0,0-6.69.27l-15.19,15.2c-11.47,11.48-31.47,11.51-43,0l-3.26-3.25,54.23-54.21a71.63,71.63,0,0,1,51-21.12H449.27a4.95,4.95,0,0,0,0-9.89H293.06q-3.46,0-6.88.29a5,5,0,0,0-1.64-.29H67.07a4.95,4.95,0,1,0,0,9.89H253.94a82.17,82.17,0,0,0-18.88,14.12L177.34,191a5,5,0,0,0-1.44,3.5,4.93,4.93,0,0,0,1.46,3.5l6.74,6.74a40.28,40.28,0,0,0,57,0l12.17-12.18c6.22,4.34,19.79,12.53,36.81,15.25L375.25,293a13.35,13.35,0,0,1,0,18.87,13.39,13.39,0,0,1-17.44,1.23c-.41-.48-.83-.95-1.28-1.4l-29.48-29.47a4.94,4.94,0,0,0-7,0l-.08.08-.09.08a5,5,0,0,0,0,7l29.49,29.48c.44.44.9.86,1.37,1.25a13.33,13.33,0,0,1-18.63,18.7c-.41-.48-.83-1-1.29-1.42l-29.47-29.47a5,5,0,0,0-7,0,.6.6,0,0,1-.08.08l-.09.09a5,5,0,0,0,0,7l29.47,29.47c.46.46.94.89,1.42,1.3a13.33,13.33,0,0,1-18.69,18.64c-.4-.47-.82-.94-1.27-1.39L297,355a4.86,4.86,0,0,0-1.21-.88l-16.65-16.65A23.19,23.19,0,0,0,254,308.71a23.16,23.16,0,0,0-25.7-25.7,23.19,23.19,0,0,0-6.63-19.07,23.44,23.44,0,0,0-19.1-6.45,23.22,23.22,0,0,0-39.48-19.28l-17.29,17.3-7.25-7.25a5,5,0,0,0-3.5-1.44H62.73a4.95,4.95,0,0,0,0,9.89H133l5.8,5.8-5.17,5.18a23.23,23.23,0,0,0,19.06,39.5,23.14,23.14,0,0,0,25.7,25.71,23.23,23.23,0,0,0,25.72,25.71,23.23,23.23,0,0,0,39.51,19.07l5.17-5.17L272.24,396a23.22,23.22,0,0,0,39.51-19.07,23.19,23.19,0,0,0,25.71-25.72,23.17,23.17,0,0,0,25.71-25.7A23.23,23.23,0,0,0,382.25,286L371.18,274.9l7.83-7.82h70.26a4.94,4.94,0,0,0,0-9.88ZM140.61,293.56h0a13.33,13.33,0,0,1,0-18.87l29.48-29.48a13.34,13.34,0,0,1,20.07,17.47c-.47.4-.93.81-1.37,1.25L159.31,293.4c-.44.45-.86.91-1.26,1.39A13.32,13.32,0,0,1,140.61,293.56Zm25.7,25.71a13.33,13.33,0,0,1-1.21-17.45c.47-.4.94-.82,1.38-1.26L196,271.08q.67-.68,1.29-1.41a13.33,13.33,0,0,1,18.65,18.68c-.48.41-1,.83-1.41,1.28L185,319.11c-.46.45-.89.93-1.3,1.42A13.31,13.31,0,0,1,166.31,319.27ZM192,345a13.33,13.33,0,0,1-1.24-17.42c.48-.41.95-.83,1.41-1.28l29.47-29.48c.46-.46.88-.93,1.3-1.42a13.33,13.33,0,0,1,18.62,18.7c-.47.4-.93.81-1.37,1.26l-29.48,29.47c-.45.45-.87.92-1.27,1.39A13.3,13.3,0,0,1,192,345Zm44.58,25.71a13.65,13.65,0,0,1-18.87,0h0a13.33,13.33,0,0,1-1.21-17.45c.47-.39.93-.81,1.37-1.25l29.47-29.48c.45-.44.87-.91,1.28-1.39a13.34,13.34,0,0,1,17.44,20.1ZM298.11,389a13.3,13.3,0,0,1-18.86,0l-4.18-4.17-19.29-19.29,17.3-17.3c.47-.48.92-1,1.34-1.48L298,370.27c.44.44.9.85,1.37,1.25A13.33,13.33,0,0,1,298.11,389Z"/></svg>